<?xml version='1.0'?>
<!--
Bitly Generated QR Code
v5
37x37
-->
<svg width='720' height='720'
xmlns='http://www.w3.org/2000/svg'
xmlns:xlink='http://www.w3.org/1999/xlink'>
	<g id='background' style='fill:#ffffff' >
<rect x="0" y="0" width="720" height="720" />
</g>
<g id='pips' style='fill:#000000' >
<path d="M66.4,272L80,272L93.6,272A2.4,2.4,0,0,1,96,274.4L96,285.6A2.4,2.4,0,0,0,98.4,288L112,288L125.6,288A2.4,2.4,0,0,1,128,290.4L128,301.6A2.4,2.4,0,0,1,125.6,304L112,304L96,304L82.4,304A2.4,2.4,0,0,1,80,301.6L80,290.4A2.4,2.4,0,0,0,77.6,288L66.4,288A2.4,2.4,0,0,1,64,285.6L64,274.4A2.4,2.4,0,0,1,66.4,272M66.4,320L80,320L96,320L109.6,320A2.4,2.4,0,0,1,112,322.4L112,333.6A2.4,2.4,0,0,0,114.4,336L128,336L141.6,336A2.4,2.4,0,0,1,144,338.4L144,349.6A2.4,2.4,0,0,1,141.6,352L130.4,352A2.4,2.4,0,0,0,128,354.4L128,368L128,384L128,397.6A2.4,2.4,0,0,1,125.6,400L112,400L98.4,400A2.4,2.4,0,0,0,96,402.4L96,413.6A2.4,2.4,0,0,1,93.6,416L82.4,416A2.4,2.4,0,0,1,80,413.6L80,402.4A2.4,2.4,0,0,0,77.6,400L66.4,400A2.4,2.4,0,0,1,64,397.6L64,386.4A2.4,2.4,0,0,1,66.4,384L80,384L93.6,384A2.4,2.4,0,0,0,96,381.6L96,370.4A2.4,2.4,0,0,0,93.6,368L82.4,368A2.4,2.4,0,0,1,80,365.6L80,354.4A2.4,2.4,0,0,1,82.4,352L93.6,352A2.4,2.4,0,0,0,96,349.6L96,338.4A2.4,2.4,0,0,0,93.6,336L80,336L66.4,336A2.4,2.4,0,0,1,64,333.6L64,322.4A2.4,2.4,0,0,1,66.4,320M66.4,464L77.6,464A2.4,2.4,0,0,1,80,466.4L80,480L80,496L80,512L80,525.6A2.4,2.4,0,0,1,77.6,528L66.4,528A2.4,2.4,0,0,1,64,525.6L64,512L64,496L64,480L64,466.4A2.4,2.4,0,0,1,66.4,464M82.4,208L96,208L109.6,208A2.4,2.4,0,0,1,112,210.4L112,224L112,237.6A2.4,2.4,0,0,1,109.6,240L98.4,240A2.4,2.4,0,0,1,96,237.6L96,226.4A2.4,2.4,0,0,0,93.6,224L82.4,224A2.4,2.4,0,0,1,80,221.6L80,210.4A2.4,2.4,0,0,1,82.4,208M82.4,432L96,432L109.6,432A2.4,2.4,0,0,1,112,434.4L112,448L112,464L112,477.6A2.4,2.4,0,0,1,109.6,480L98.4,480A2.4,2.4,0,0,1,96,477.6L96,466.4A2.4,2.4,0,0,0,93.6,464L82.4,464A2.4,2.4,0,0,1,80,461.6L80,448L80,434.4A2.4,2.4,0,0,1,82.4,432M98.4,256L109.6,256A2.4,2.4,0,0,1,112,258.4L112,269.6A2.4,2.4,0,0,1,109.6,272L98.4,272A2.4,2.4,0,0,1,96,269.6L96,258.4A2.4,2.4,0,0,1,98.4,256M114.4,240L125.6,240A2.4,2.4,0,0,1,128,242.4L128,253.6A2.4,2.4,0,0,1,125.6,256L114.4,256A2.4,2.4,0,0,1,112,253.6L112,242.4A2.4,2.4,0,0,1,114.4,240M114.4,416L128,416L141.6,416A2.4,2.4,0,0,1,144,418.4L144,432L144,445.6A2.4,2.4,0,0,1,141.6,448L130.4,448A2.4,2.4,0,0,1,128,445.6L128,434.4A2.4,2.4,0,0,0,125.6,432L114.4,432A2.4,2.4,0,0,1,112,429.6L112,418.4A2.4,2.4,0,0,1,114.4,416M114.4,512L125.6,512A2.4,2.4,0,0,0,128,509.6L128,498.4A2.4,2.4,0,0,1,130.4,496L141.6,496A2.4,2.4,0,0,1,144,498.4L144,509.6A2.4,2.4,0,0,0,146.4,512L160,512L173.6,512A2.4,2.4,0,0,1,176,514.4L176,525.6A2.4,2.4,0,0,1,173.6,528L160,528L144,528L128,528L114.4,528A2.4,2.4,0,0,1,112,525.6L112,514.4A2.4,2.4,0,0,1,114.4,512M130.4,224L141.6,224A2.4,2.4,0,0,1,144,226.4L144,237.6A2.4,2.4,0,0,1,141.6,240L130.4,240A2.4,2.4,0,0,1,128,237.6L128,226.4A2.4,2.4,0,0,1,130.4,224M130.4,256L144,256L160,256L173.6,256A2.4,2.4,0,0,0,176,253.6L176,242.4A2.4,2.4,0,0,0,173.6,240L162.4,240A2.4,2.4,0,0,1,160,237.6L160,226.4A2.4,2.4,0,0,1,162.4,224L176,224L189.6,224A2.4,2.4,0,0,0,192,221.6L192,210.4A2.4,2.4,0,0,1,194.4,208L205.6,208A2.4,2.4,0,0,0,208,205.6L208,194.4A2.4,2.4,0,0,0,205.6,192L194.4,192A2.4,2.4,0,0,1,192,189.6L192,176L192,162.4A2.4,2.4,0,0,1,194.4,160L205.6,160A2.4,2.4,0,0,1,208,162.4L208,173.6A2.4,2.4,0,0,0,210.4,176L221.6,176A2.4,2.4,0,0,1,224,178.4L224,192L224,205.6A2.4,2.4,0,0,0,226.4,208L237.6,208A2.4,2.4,0,0,0,240,205.6L240,192L240,178.4A2.4,2.4,0,0,1,242.4,176L253.6,176A2.4,2.4,0,0,1,256,178.4L256,192L256,208L256,224L256,240L256,253.6A2.4,2.4,0,0,1,253.6,256L242.4,256A2.4,2.4,0,0,1,240,253.6L240,242.4A2.4,2.4,0,0,0,237.6,240L226.4,240A2.4,2.4,0,0,1,224,237.6L224,226.4A2.4,2.4,0,0,0,221.6,224L210.4,224A2.4,2.4,0,0,0,208,226.4L208,240L208,253.6A2.4,2.4,0,0,1,205.6,256L194.4,256A2.4,2.4,0,0,0,192,258.4L192,269.6A2.4,2.4,0,0,1,189.6,272L176,272L162.4,272A2.4,2.4,0,0,0,160,274.4L160,285.6A2.4,2.4,0,0,1,157.6,288L144,288L130.4,288A2.4,2.4,0,0,1,128,285.6L128,272L128,258.4A2.4,2.4,0,0,1,130.4,256M130.4,304L141.6,304A2.4,2.4,0,0,1,144,306.4L144,317.6A2.4,2.4,0,0,1,141.6,320L130.4,320A2.4,2.4,0,0,1,128,317.6L128,306.4A2.4,2.4,0,0,1,130.4,304M130.4,464L141.6,464A2.4,2.4,0,0,1,144,466.4L144,477.6A2.4,2.4,0,0,1,141.6,480L130.4,480A2.4,2.4,0,0,1,128,477.6L128,466.4A2.4,2.4,0,0,1,130.4,464M146.4,192L160,192L173.6,192A2.4,2.4,0,0,1,176,194.4L176,205.6A2.4,2.4,0,0,1,173.6,208L160,208L146.4,208A2.4,2.4,0,0,1,144,205.6L144,194.4A2.4,2.4,0,0,1,146.4,192M146.4,368L157.6,368A2.4,2.4,0,0,1,160,370.4L160,381.6A2.4,2.4,0,0,0,162.4,384L173.6,384A2.4,2.4,0,0,0,176,381.6L176,370.4A2.4,2.4,0,0,0,173.6,368L162.4,368A2.4,2.4,0,0,1,160,365.6L160,354.4A2.4,2.4,0,0,1,162.4,352L173.6,352A2.4,2.4,0,0,0,176,349.6L176,338.4A2.4,2.4,0,0,0,173.6,336L162.4,336A2.4,2.4,0,0,1,160,333.6L160,322.4A2.4,2.4,0,0,1,162.4,320L173.6,320A2.4,2.4,0,0,0,176,317.6L176,306.4A2.4,2.4,0,0,1,178.4,304L189.6,304A2.4,2.4,0,0,1,192,306.4L192,320L192,333.6A2.4,2.4,0,0,0,194.4,336L205.6,336A2.4,2.4,0,0,1,208,338.4L208,349.6A2.4,2.4,0,0,0,210.4,352L221.6,352A2.4,2.4,0,0,1,224,354.4L224,368L224,381.6A2.4,2.4,0,0,1,221.6,384L210.4,384A2.4,2.4,0,0,1,208,381.6L208,370.4A2.4,2.4,0,0,0,205.6,368L194.4,368A2.4,2.4,0,0,0,192,370.4L192,384L192,397.6A2.4,2.4,0,0,1,189.6,400L176,400L162.4,400A2.4,2.4,0,0,0,160,402.4L160,413.6A2.4,2.4,0,0,1,157.6,416L146.4,416A2.4,2.4,0,0,1,144,413.6L144,400L144,384L144,370.4A2.4,2.4,0,0,1,146.4,368M146.4,448L160,448L173.6,448A2.4,2.4,0,0,1,176,450.4L176,461.6A2.4,2.4,0,0,1,173.6,464L160,464L146.4,464A2.4,2.4,0,0,1,144,461.6L144,450.4A2.4,2.4,0,0,1,146.4,448M146.4,480L160,480L173.6,480A2.4,2.4,0,0,1,176,482.4L176,493.6A2.4,2.4,0,0,1,173.6,496L160,496L146.4,496A2.4,2.4,0,0,1,144,493.6L144,482.4A2.4,2.4,0,0,1,146.4,480M162.4,288L173.6,288A2.4,2.4,0,0,1,176,290.4L176,301.6A2.4,2.4,0,0,1,173.6,304L162.4,304A2.4,2.4,0,0,1,160,301.6L160,290.4A2.4,2.4,0,0,1,162.4,288M162.4,416L176,416L189.6,416A2.4,2.4,0,0,1,192,418.4L192,429.6A2.4,2.4,0,0,1,189.6,432L176,432L162.4,432A2.4,2.4,0,0,1,160,429.6L160,418.4A2.4,2.4,0,0,1,162.4,416M178.4,464L189.6,464A2.4,2.4,0,0,1,192,466.4L192,477.6A2.4,2.4,0,0,1,189.6,480L178.4,480A2.4,2.4,0,0,1,176,477.6L176,466.4A2.4,2.4,0,0,1,178.4,464M178.4,496L192,496L205.6,496A2.4,2.4,0,0,0,208,493.6L208,482.4A2.4,2.4,0,0,1,210.4,480L224,480L237.6,480A2.4,2.4,0,0,1,240,482.4L240,493.6A2.4,2.4,0,0,1,237.6,496L226.4,496A2.4,2.4,0,0,0,224,498.4L224,509.6A2.4,2.4,0,0,1,221.6,512L208,512L192,512L178.4,512A2.4,2.4,0,0,1,176,509.6L176,498.4A2.4,2.4,0,0,1,178.4,496M194.4,64L205.6,64A2.4,2.4,0,0,1,208,66.4L208,77.6A2.4,2.4,0,0,1,205.6,80L194.4,80A2.4,2.4,0,0,1,192,77.6L192,66.4A2.4,2.4,0,0,1,194.4,64M194.4,96L205.6,96A2.4,2.4,0,0,0,208,93.6L208,82.4A2.4,2.4,0,0,1,210.4,80L224,80L237.6,80A2.4,2.4,0,0,1,240,82.4L240,93.6A2.4,2.4,0,0,1,237.6,96L226.4,96A2.4,2.4,0,0,0,224,98.4L224,109.6A2.4,2.4,0,0,1,221.6,112L208,112L194.4,112A2.4,2.4,0,0,1,192,109.6L192,98.4A2.4,2.4,0,0,1,194.4,96M194.4,128L205.6,128A2.4,2.4,0,0,1,208,130.4L208,141.6A2.4,2.4,0,0,1,205.6,144L194.4,144A2.4,2.4,0,0,1,192,141.6L192,130.4A2.4,2.4,0,0,1,194.4,128M194.4,400L205.6,400A2.4,2.4,0,0,1,208,402.4L208,413.6A2.4,2.4,0,0,1,205.6,416L194.4,416A2.4,2.4,0,0,1,192,413.6L192,402.4A2.4,2.4,0,0,1,194.4,400M194.4,432L205.6,432A2.4,2.4,0,0,0,208,429.6L208,418.4A2.4,2.4,0,0,1,210.4,416L221.6,416A2.4,2.4,0,0,1,224,418.4L224,432L224,445.6A2.4,2.4,0,0,1,221.6,448L208,448L194.4,448A2.4,2.4,0,0,1,192,445.6L192,434.4A2.4,2.4,0,0,1,194.4,432M194.4,528L208,528L221.6,528A2.4,2.4,0,0,1,224,530.4L224,544L224,560L224,573.6A2.4,2.4,0,0,1,221.6,576L208,576L194.4,576A2.4,2.4,0,0,1,192,573.6L192,562.4A2.4,2.4,0,0,1,194.4,560L205.6,560A2.4,2.4,0,0,0,208,557.6L208,546.4A2.4,2.4,0,0,0,205.6,544L194.4,544A2.4,2.4,0,0,1,192,541.6L192,530.4A2.4,2.4,0,0,1,194.4,528M210.4,144L224,144L240,144L253.6,144A2.4,2.4,0,0,1,256,146.4L256,157.6A2.4,2.4,0,0,1,253.6,160L242.4,160A2.4,2.4,0,0,0,240,162.4L240,173.6A2.4,2.4,0,0,1,237.6,176L226.4,176A2.4,2.4,0,0,1,224,173.6L224,162.4A2.4,2.4,0,0,0,221.6,160L210.4,160A2.4,2.4,0,0,1,208,157.6L208,146.4A2.4,2.4,0,0,1,210.4,144M210.4,272L221.6,272A2.4,2.4,0,0,1,224,274.4L224,285.6A2.4,2.4,0,0,1,221.6,288L210.4,288A2.4,2.4,0,0,1,208,285.6L208,274.4A2.4,2.4,0,0,1,210.4,272M210.4,304L221.6,304A2.4,2.4,0,0,1,224,306.4L224,317.6A2.4,2.4,0,0,1,221.6,320L210.4,320A2.4,2.4,0,0,1,208,317.6L208,306.4A2.4,2.4,0,0,1,210.4,304M226.4,112L237.6,112A2.4,2.4,0,0,1,240,114.4L240,125.6A2.4,2.4,0,0,1,237.6,128L226.4,128A2.4,2.4,0,0,1,224,125.6L224,114.4A2.4,2.4,0,0,1,226.4,112M226.4,256L237.6,256A2.4,2.4,0,0,1,240,258.4L240,269.6A2.4,2.4,0,0,1,237.6,272L226.4,272A2.4,2.4,0,0,1,224,269.6L224,258.4A2.4,2.4,0,0,1,226.4,256M226.4,336L240,336L253.6,336A2.4,2.4,0,0,1,256,338.4L256,349.6A2.4,2.4,0,0,1,253.6,352L240,352L226.4,352A2.4,2.4,0,0,1,224,349.6L224,338.4A2.4,2.4,0,0,1,226.4,336M226.4,384L237.6,384A2.4,2.4,0,0,1,240,386.4L240,397.6A2.4,2.4,0,0,0,242.4,400L253.6,400A2.4,2.4,0,0,0,256,397.6L256,386.4A2.4,2.4,0,0,1,258.4,384L272,384L285.6,384A2.4,2.4,0,0,1,288,386.4L288,397.6A2.4,2.4,0,0,1,285.6,400L274.4,400A2.4,2.4,0,0,0,272,402.4L272,413.6A2.4,2.4,0,0,0,274.4,416L288,416L301.6,416A2.4,2.4,0,0,1,304,418.4L304,429.6A2.4,2.4,0,0,1,301.6,432L288,432L274.4,432A2.4,2.4,0,0,0,272,434.4L272,445.6A2.4,2.4,0,0,1,269.6,448L258.4,448A2.4,2.4,0,0,0,256,450.4L256,461.6A2.4,2.4,0,0,0,258.4,464L269.6,464A2.4,2.4,0,0,1,272,466.4L272,477.6A2.4,2.4,0,0,1,269.6,480L256,480L242.4,480A2.4,2.4,0,0,1,240,477.6L240,466.4A2.4,2.4,0,0,0,237.6,464L226.4,464A2.4,2.4,0,0,1,224,461.6L224,450.4A2.4,2.4,0,0,1,226.4,448L237.6,448A2.4,2.4,0,0,0,240,445.6L240,434.4A2.4,2.4,0,0,1,242.4,432L253.6,432A2.4,2.4,0,0,0,256,429.6L256,418.4A2.4,2.4,0,0,0,253.6,416L240,416L226.4,416A2.4,2.4,0,0,1,224,413.6L224,400L224,386.4A2.4,2.4,0,0,1,226.4,384M226.4,512L237.6,512A2.4,2.4,0,0,1,240,514.4L240,525.6A2.4,2.4,0,0,1,237.6,528L226.4,528A2.4,2.4,0,0,1,224,525.6L224,514.4A2.4,2.4,0,0,1,226.4,512M226.4,608L237.6,608A2.4,2.4,0,0,1,240,610.4L240,621.6A2.4,2.4,0,0,1,237.6,624L226.4,624A2.4,2.4,0,0,1,224,621.6L224,610.4A2.4,2.4,0,0,1,226.4,608M226.4,640L240,640L253.6,640A2.4,2.4,0,0,0,256,637.6L256,624L256,608L256,594.4A2.4,2.4,0,0,0,253.6,592L242.4,592A2.4,2.4,0,0,1,240,589.6L240,576L240,562.4A2.4,2.4,0,0,1,242.4,560L253.6,560A2.4,2.4,0,0,1,256,562.4L256,573.6A2.4,2.4,0,0,0,258.4,576L272,576L285.6,576A2.4,2.4,0,0,1,288,578.4L288,589.6A2.4,2.4,0,0,1,285.6,592L274.4,592A2.4,2.4,0,0,0,272,594.4L272,605.6A2.4,2.4,0,0,0,274.4,608L285.6,608A2.4,2.4,0,0,1,288,610.4L288,621.6A2.4,2.4,0,0,1,285.6,624L274.4,624A2.4,2.4,0,0,0,272,626.4L272,637.6A2.4,2.4,0,0,0,274.4,640L285.6,640A2.4,2.4,0,0,0,288,637.6L288,626.4A2.4,2.4,0,0,1,290.4,624L304,624L317.6,624A2.4,2.4,0,0,0,320,621.6L320,608L320,594.4A2.4,2.4,0,0,1,322.4,592L333.6,592A2.4,2.4,0,0,0,336,589.6L336,578.4A2.4,2.4,0,0,0,333.6,576L322.4,576A2.4,2.4,0,0,0,320,578.4L320,589.6A2.4,2.4,0,0,1,317.6,592L306.4,592A2.4,2.4,0,0,1,304,589.6L304,578.4A2.4,2.4,0,0,0,301.6,576L290.4,576A2.4,2.4,0,0,1,288,573.6L288,562.4A2.4,2.4,0,0,1,290.4,560L304,560L320,560L336,560L352,560L365.6,560A2.4,2.4,0,0,0,368,557.6L368,546.4A2.4,2.4,0,0,0,365.6,544L354.4,544A2.4,2.4,0,0,1,352,541.6L352,530.4A2.4,2.4,0,0,0,349.6,528L336,528L320,528L306.4,528A2.4,2.4,0,0,1,304,525.6L304,514.4A2.4,2.4,0,0,1,306.4,512L317.6,512A2.4,2.4,0,0,0,320,509.6L320,498.4A2.4,2.4,0,0,1,322.4,496L333.6,496A2.4,2.4,0,0,1,336,498.4L336,509.6A2.4,2.4,0,0,0,338.4,512L352,512L365.6,512A2.4,2.4,0,0,0,368,509.6L368,498.4A2.4,2.4,0,0,0,365.6,496L352,496L338.4,496A2.4,2.4,0,0,1,336,493.6L336,482.4A2.4,2.4,0,0,1,338.4,480L349.6,480A2.4,2.4,0,0,0,352,477.6L352,466.4A2.4,2.4,0,0,0,349.6,464L336,464L322.4,464A2.4,2.4,0,0,1,320,461.6L320,450.4A2.4,2.4,0,0,1,322.4,448L333.6,448A2.4,2.4,0,0,0,336,445.6L336,434.4A2.4,2.4,0,0,1,338.4,432L349.6,432A2.4,2.4,0,0,0,352,429.6L352,416L352,400L352,386.4A2.4,2.4,0,0,1,354.4,384L365.6,384A2.4,2.4,0,0,1,368,386.4L368,400L368,413.6A2.4,2.4,0,0,0,370.4,416L381.6,416A2.4,2.4,0,0,1,384,418.4L384,429.6A2.4,2.4,0,0,1,381.6,432L370.4,432A2.4,2.4,0,0,0,368,434.4L368,445.6A2.4,2.4,0,0,0,370.4,448L384,448L397.6,448A2.4,2.4,0,0,1,400,450.4L400,461.6A2.4,2.4,0,0,1,397.6,464L386.4,464A2.4,2.4,0,0,0,384,466.4L384,480L384,496L384,512L384,528L384,541.6A2.4,2.4,0,0,0,386.4,544L397.6,544A2.4,2.4,0,0,1,400,546.4L400,560L400,573.6A2.4,2.4,0,0,1,397.6,576L384,576L368,576L354.4,576A2.4,2.4,0,0,0,352,578.4L352,589.6A2.4,2.4,0,0,0,354.4,592L368,592L384,592L397.6,592A2.4,2.4,0,0,0,400,589.6L400,578.4A2.4,2.4,0,0,1,402.4,576L413.6,576A2.4,2.4,0,0,0,416,573.6L416,562.4A2.4,2.4,0,0,1,418.4,560L429.6,560A2.4,2.4,0,0,0,432,557.6L432,546.4A2.4,2.4,0,0,0,429.6,544L418.4,544A2.4,2.4,0,0,1,416,541.6L416,528L416,512L416,498.4A2.4,2.4,0,0,1,418.4,496L429.6,496A2.4,2.4,0,0,1,432,498.4L432,512L432,525.6A2.4,2.4,0,0,0,434.4,528L445.6,528A2.4,2.4,0,0,1,448,530.4L448,541.6A2.4,2.4,0,0,0,450.4,544L461.6,544A2.4,2.4,0,0,1,464,546.4L464,557.6A2.4,2.4,0,0,1,461.6,560L450.4,560A2.4,2.4,0,0,0,448,562.4L448,573.6A2.4,2.4,0,0,0,450.4,576L464,576L477.6,576A2.4,2.4,0,0,0,480,573.6L480,562.4A2.4,2.4,0,0,1,482.4,560L496,560L509.6,560A2.4,2.4,0,0,0,512,557.6L512,546.4A2.4,2.4,0,0,0,509.6,544L498.4,544A2.4,2.4,0,0,1,496,541.6L496,530.4A2.4,2.4,0,0,1,498.4,528L509.6,528A2.4,2.4,0,0,0,512,525.6L512,514.4A2.4,2.4,0,0,1,514.4,512L525.6,512A2.4,2.4,0,0,0,528,509.6L528,498.4A2.4,2.4,0,0,1,530.4,496L541.6,496A2.4,2.4,0,0,1,544,498.4L544,509.6A2.4,2.4,0,0,0,546.4,512L557.6,512A2.4,2.4,0,0,0,560,509.6L560,498.4A2.4,2.4,0,0,1,562.4,496L573.6,496A2.4,2.4,0,0,1,576,498.4L576,509.6A2.4,2.4,0,0,0,578.4,512L589.6,512A2.4,2.4,0,0,0,592,509.6L592,498.4A2.4,2.4,0,0,1,594.4,496L608,496L621.6,496A2.4,2.4,0,0,0,624,493.6L624,482.4A2.4,2.4,0,0,0,621.6,480L608,480L594.4,480A2.4,2.4,0,0,1,592,477.6L592,466.4A2.4,2.4,0,0,1,594.4,464L605.6,464A2.4,2.4,0,0,0,608,461.6L608,450.4A2.4,2.4,0,0,1,610.4,448L624,448L637.6,448A2.4,2.4,0,0,1,640,450.4L640,464L640,477.6A2.4,2.4,0,0,0,642.4,480L653.6,480A2.4,2.4,0,0,1,656,482.4L656,496L656,512L656,525.6A2.4,2.4,0,0,1,653.6,528L642.4,528A2.4,2.4,0,0,1,640,525.6L640,514.4A2.4,2.4,0,0,0,637.6,512L626.4,512A2.4,2.4,0,0,0,624,514.4L624,525.6A2.4,2.4,0,0,1,621.6,528L610.4,528A2.4,2.4,0,0,0,608,530.4L608,541.6A2.4,2.4,0,0,0,610.4,544L621.6,544A2.4,2.4,0,0,1,624,546.4L624,557.6A2.4,2.4,0,0,1,621.6,560L610.4,560A2.4,2.4,0,0,0,608,562.4L608,573.6A2.4,2.4,0,0,1,605.6,576L594.4,576A2.4,2.4,0,0,0,592,578.4L592,589.6A2.4,2.4,0,0,1,589.6,592L578.4,592A2.4,2.4,0,0,0,576,594.4L576,608L576,624L576,637.6A2.4,2.4,0,0,1,573.6,640L562.4,640A2.4,2.4,0,0,1,560,637.6L560,624L560,610.4A2.4,2.4,0,0,0,557.6,608L546.4,608A2.4,2.4,0,0,1,544,605.6L544,594.4A2.4,2.4,0,0,0,541.6,592L530.4,592A2.4,2.4,0,0,0,528,594.4L528,605.6A2.4,2.4,0,0,1,525.6,608L512,608L498.4,608A2.4,2.4,0,0,1,496,605.6L496,594.4A2.4,2.4,0,0,0,493.6,592L480,592L464,592L448,592L432,592L418.4,592A2.4,2.4,0,0,0,416,594.4L416,605.6A2.4,2.4,0,0,1,413.6,608L402.4,608A2.4,2.4,0,0,0,400,610.4L400,624L400,637.6A2.4,2.4,0,0,0,402.4,640L413.6,640A2.4,2.4,0,0,1,416,642.4L416,653.6A2.4,2.4,0,0,1,413.6,656L400,656L386.4,656A2.4,2.4,0,0,1,384,653.6L384,642.4A2.4,2.4,0,0,0,381.6,640L368,640L354.4,640A2.4,2.4,0,0,0,352,642.4L352,653.6A2.4,2.4,0,0,1,349.6,656L336,656L320,656L304,656L288,656L272,656L256,656L240,656L226.4,656A2.4,2.4,0,0,1,224,653.6L224,642.4A2.4,2.4,0,0,1,226.4,640M242.4,64L256,64L269.6,64A2.4,2.4,0,0,1,272,66.4L272,77.6A2.4,2.4,0,0,1,269.6,80L256,80L242.4,80A2.4,2.4,0,0,1,240,77.6L240,66.4A2.4,2.4,0,0,1,242.4,64M242.4,96L256,96L269.6,96A2.4,2.4,0,0,1,272,98.4L272,109.6A2.4,2.4,0,0,1,269.6,112L256,112L242.4,112A2.4,2.4,0,0,1,240,109.6L240,98.4A2.4,2.4,0,0,1,242.4,96M242.4,272L253.6,272A2.4,2.4,0,0,1,256,274.4L256,285.6A2.4,2.4,0,0,1,253.6,288L242.4,288A2.4,2.4,0,0,1,240,285.6L240,274.4A2.4,2.4,0,0,1,242.4,272M242.4,304L253.6,304A2.4,2.4,0,0,1,256,306.4L256,317.6A2.4,2.4,0,0,1,253.6,320L242.4,320A2.4,2.4,0,0,1,240,317.6L240,306.4A2.4,2.4,0,0,1,242.4,304M242.4,496L256,496L272,496L285.6,496A2.4,2.4,0,0,1,288,498.4L288,512L288,525.6A2.4,2.4,0,0,0,290.4,528L301.6,528A2.4,2.4,0,0,1,304,530.4L304,541.6A2.4,2.4,0,0,1,301.6,544L288,544L274.4,544A2.4,2.4,0,0,0,272,546.4L272,557.6A2.4,2.4,0,0,1,269.6,560L258.4,560A2.4,2.4,0,0,1,256,557.6L256,546.4A2.4,2.4,0,0,0,253.6,544L242.4,544A2.4,2.4,0,0,1,240,541.6L240,530.4A2.4,2.4,0,0,1,242.4,528L253.6,528A2.4,2.4,0,0,0,256,525.6L256,514.4A2.4,2.4,0,0,0,253.6,512L242.4,512A2.4,2.4,0,0,1,240,509.6L240,498.4A2.4,2.4,0,0,1,242.4,496M258.4,160L269.6,160A2.4,2.4,0,0,1,272,162.4L272,173.6A2.4,2.4,0,0,1,269.6,176L258.4,176A2.4,2.4,0,0,1,256,173.6L256,162.4A2.4,2.4,0,0,1,258.4,160M258.4,320L272,320L288,320L301.6,320A2.4,2.4,0,0,0,304,317.6L304,304L304,290.4A2.4,2.4,0,0,1,306.4,288L317.6,288A2.4,2.4,0,0,0,320,285.6L320,272L320,258.4A2.4,2.4,0,0,0,317.6,256L306.4,256A2.4,2.4,0,0,1,304,253.6L304,242.4A2.4,2.4,0,0,1,306.4,240L317.6,240A2.4,2.4,0,0,0,320,237.6L320,226.4A2.4,2.4,0,0,1,322.4,224L333.6,224A2.4,2.4,0,0,1,336,226.4L336,240L336,256L336,272L336,288L336,304L336,317.6A2.4,2.4,0,0,1,333.6,320L322.4,320A2.4,2.4,0,0,0,320,322.4L320,336L320,349.6A2.4,2.4,0,0,0,322.4,352L333.6,352A2.4,2.4,0,0,1,336,354.4L336,365.6A2.4,2.4,0,0,1,333.6,368L320,368L306.4,368A2.4,2.4,0,0,1,304,365.6L304,352L304,338.4A2.4,2.4,0,0,0,301.6,336L290.4,336A2.4,2.4,0,0,0,288,338.4L288,352L288,365.6A2.4,2.4,0,0,1,285.6,368L274.4,368A2.4,2.4,0,0,1,272,365.6L272,352L272,338.4A2.4,2.4,0,0,0,269.6,336L258.4,336A2.4,2.4,0,0,1,256,333.6L256,322.4A2.4,2.4,0,0,1,258.4,320M274.4,80L288,80L304,80L320,80L333.6,80A2.4,2.4,0,0,1,336,82.4L336,96L336,112L336,125.6A2.4,2.4,0,0,1,333.6,128L320,128L304,128L290.4,128A2.4,2.4,0,0,0,288,130.4L288,144L288,157.6A2.4,2.4,0,0,1,285.6,160L274.4,160A2.4,2.4,0,0,1,272,157.6L272,144L272,128L272,114.4A2.4,2.4,0,0,1,274.4,112L285.6,112A2.4,2.4,0,0,0,288,109.6L288,98.4A2.4,2.4,0,0,0,285.6,96L274.4,96A2.4,2.4,0,0,1,272,93.6L272,82.4A2.4,2.4,0,0,1,274.4,80M274.4,208L288,208L301.6,208A2.4,2.4,0,0,0,304,205.6L304,194.4A2.4,2.4,0,0,1,306.4,192L317.6,192A2.4,2.4,0,0,0,320,189.6L320,176L320,160L320,146.4A2.4,2.4,0,0,1,322.4,144L333.6,144A2.4,2.4,0,0,0,336,141.6L336,130.4A2.4,2.4,0,0,1,338.4,128L349.6,128A2.4,2.4,0,0,0,352,125.6L352,112L352,98.4A2.4,2.4,0,0,1,354.4,96L365.6,96A2.4,2.4,0,0,1,368,98.4L368,109.6A2.4,2.4,0,0,0,370.4,112L381.6,112A2.4,2.4,0,0,1,384,114.4L384,125.6A2.4,2.4,0,0,1,381.6,128L370.4,128A2.4,2.4,0,0,0,368,130.4L368,144L368,160L368,173.6A2.4,2.4,0,0,1,365.6,176L354.4,176A2.4,2.4,0,0,1,352,173.6L352,162.4A2.4,2.4,0,0,0,349.6,160L338.4,160A2.4,2.4,0,0,0,336,162.4L336,176L336,189.6A2.4,2.4,0,0,0,338.4,192L349.6,192A2.4,2.4,0,0,1,352,194.4L352,208L352,221.6A2.4,2.4,0,0,1,349.6,224L338.4,224A2.4,2.4,0,0,1,336,221.6L336,210.4A2.4,2.4,0,0,0,333.6,208L322.4,208A2.4,2.4,0,0,0,320,210.4L320,221.6A2.4,2.4,0,0,1,317.6,224L306.4,224A2.4,2.4,0,0,0,304,226.4L304,237.6A2.4,2.4,0,0,1,301.6,240L290.4,240A2.4,2.4,0,0,1,288,237.6L288,226.4A2.4,2.4,0,0,0,285.6,224L274.4,224A2.4,2.4,0,0,1,272,221.6L272,210.4A2.4,2.4,0,0,1,274.4,208M274.4,240L285.6,240A2.4,2.4,0,0,1,288,242.4L288,253.6A2.4,2.4,0,0,1,285.6,256L274.4,256A2.4,2.4,0,0,1,272,253.6L272,242.4A2.4,2.4,0,0,1,274.4,240M274.4,288L285.6,288A2.4,2.4,0,0,1,288,290.4L288,301.6A2.4,2.4,0,0,1,285.6,304L274.4,304A2.4,2.4,0,0,1,272,301.6L272,290.4A2.4,2.4,0,0,1,274.4,288M274.4,448L288,448L301.6,448A2.4,2.4,0,0,1,304,450.4L304,464L304,477.6A2.4,2.4,0,0,1,301.6,480L290.4,480A2.4,2.4,0,0,1,288,477.6L288,466.4A2.4,2.4,0,0,0,285.6,464L274.4,464A2.4,2.4,0,0,1,272,461.6L272,450.4A2.4,2.4,0,0,1,274.4,448M304,98.4L304,109.6A2.4,2.4,0,0,0,306.4,112L317.6,112A2.4,2.4,0,0,0,320,109.6L320,98.4A2.4,2.4,0,0,0,317.6,96L306.4,96A2.4,2.4,0,0,0,304,98.4M290.4,160L301.6,160A2.4,2.4,0,0,1,304,162.4L304,176L304,189.6A2.4,2.4,0,0,1,301.6,192L290.4,192A2.4,2.4,0,0,1,288,189.6L288,176L288,162.4A2.4,2.4,0,0,1,290.4,160M306.4,400L320,400L333.6,400A2.4,2.4,0,0,1,336,402.4L336,416L336,429.6A2.4,2.4,0,0,1,333.6,432L322.4,432A2.4,2.4,0,0,1,320,429.6L320,418.4A2.4,2.4,0,0,0,317.6,416L306.4,416A2.4,2.4,0,0,1,304,413.6L304,402.4A2.4,2.4,0,0,1,306.4,400M338.4,64L349.6,64A2.4,2.4,0,0,1,352,66.4L352,77.6A2.4,2.4,0,0,1,349.6,80L338.4,80A2.4,2.4,0,0,1,336,77.6L336,66.4A2.4,2.4,0,0,1,338.4,64M338.4,336L352,336L368,336L381.6,336A2.4,2.4,0,0,1,384,338.4L384,349.6A2.4,2.4,0,0,1,381.6,352L370.4,352A2.4,2.4,0,0,0,368,354.4L368,365.6A2.4,2.4,0,0,1,365.6,368L354.4,368A2.4,2.4,0,0,1,352,365.6L352,354.4A2.4,2.4,0,0,0,349.6,352L338.4,352A2.4,2.4,0,0,1,336,349.6L336,338.4A2.4,2.4,0,0,1,338.4,336M354.4,224L365.6,224A2.4,2.4,0,0,1,368,226.4L368,237.6A2.4,2.4,0,0,1,365.6,240L354.4,240A2.4,2.4,0,0,1,352,237.6L352,226.4A2.4,2.4,0,0,1,354.4,224M370.4,64L381.6,64A2.4,2.4,0,0,1,384,66.4L384,77.6A2.4,2.4,0,0,0,386.4,80L397.6,80A2.4,2.4,0,0,0,400,77.6L400,66.4A2.4,2.4,0,0,1,402.4,64L413.6,64A2.4,2.4,0,0,1,416,66.4L416,77.6A2.4,2.4,0,0,0,418.4,80L429.6,80A2.4,2.4,0,0,0,432,77.6L432,66.4A2.4,2.4,0,0,1,434.4,64L445.6,64A2.4,2.4,0,0,1,448,66.4L448,77.6A2.4,2.4,0,0,0,450.4,80L461.6,80A2.4,2.4,0,0,1,464,82.4L464,93.6A2.4,2.4,0,0,1,461.6,96L450.4,96A2.4,2.4,0,0,0,448,98.4L448,109.6A2.4,2.4,0,0,0,450.4,112L464,112L477.6,112A2.4,2.4,0,0,1,480,114.4L480,128L480,141.6A2.4,2.4,0,0,0,482.4,144L493.6,144A2.4,2.4,0,0,1,496,146.4L496,160L496,173.6A2.4,2.4,0,0,1,493.6,176L482.4,176A2.4,2.4,0,0,1,480,173.6L480,162.4A2.4,2.4,0,0,0,477.6,160L466.4,160A2.4,2.4,0,0,0,464,162.4L464,173.6A2.4,2.4,0,0,0,466.4,176L477.6,176A2.4,2.4,0,0,1,480,178.4L480,189.6A2.4,2.4,0,0,1,477.6,192L466.4,192A2.4,2.4,0,0,0,464,194.4L464,205.6A2.4,2.4,0,0,1,461.6,208L450.4,208A2.4,2.4,0,0,1,448,205.6L448,192L448,176L448,162.4A2.4,2.4,0,0,0,445.6,160L434.4,160A2.4,2.4,0,0,0,432,162.4L432,176L432,192L432,205.6A2.4,2.4,0,0,1,429.6,208L418.4,208A2.4,2.4,0,0,0,416,210.4L416,221.6A2.4,2.4,0,0,0,418.4,224L432,224L448,224L461.6,224A2.4,2.4,0,0,0,464,221.6L464,210.4A2.4,2.4,0,0,1,466.4,208L477.6,208A2.4,2.4,0,0,0,480,205.6L480,194.4A2.4,2.4,0,0,1,482.4,192L493.6,192A2.4,2.4,0,0,1,496,194.4L496,208L496,221.6A2.4,2.4,0,0,0,498.4,224L509.6,224A2.4,2.4,0,0,0,512,221.6L512,208L512,194.4A2.4,2.4,0,0,0,509.6,192L498.4,192A2.4,2.4,0,0,1,496,189.6L496,178.4A2.4,2.4,0,0,1,498.4,176L509.6,176A2.4,2.4,0,0,0,512,173.6L512,160L512,146.4A2.4,2.4,0,0,1,514.4,144L525.6,144A2.4,2.4,0,0,1,528,146.4L528,160L528,176L528,192L528,208L528,224L528,237.6A2.4,2.4,0,0,1,525.6,240L512,240L498.4,240A2.4,2.4,0,0,0,496,242.4L496,253.6A2.4,2.4,0,0,1,493.6,256L482.4,256A2.4,2.4,0,0,1,480,253.6L480,242.4A2.4,2.4,0,0,0,477.6,240L466.4,240A2.4,2.4,0,0,0,464,242.4L464,256L464,272L464,285.6A2.4,2.4,0,0,1,461.6,288L448,288L432,288L418.4,288A2.4,2.4,0,0,0,416,290.4L416,304L416,317.6A2.4,2.4,0,0,1,413.6,320L402.4,320A2.4,2.4,0,0,1,400,317.6L400,306.4A2.4,2.4,0,0,0,397.6,304L386.4,304A2.4,2.4,0,0,1,384,301.6L384,288L384,274.4A2.4,2.4,0,0,1,386.4,272L400,272L416,272L432,272L445.6,272A2.4,2.4,0,0,0,448,269.6L448,256L448,242.4A2.4,2.4,0,0,0,445.6,240L432,240L416,240L402.4,240A2.4,2.4,0,0,0,400,242.4L400,253.6A2.4,2.4,0,0,1,397.6,256L386.4,256A2.4,2.4,0,0,1,384,253.6L384,240L384,226.4A2.4,2.4,0,0,1,386.4,224L397.6,224A2.4,2.4,0,0,0,400,221.6L400,210.4A2.4,2.4,0,0,0,397.6,208L384,208L370.4,208A2.4,2.4,0,0,1,368,205.6L368,194.4A2.4,2.4,0,0,1,370.4,192L384,192L397.6,192A2.4,2.4,0,0,0,400,189.6L400,178.4A2.4,2.4,0,0,1,402.4,176L413.6,176A2.4,2.4,0,0,0,416,173.6L416,162.4A2.4,2.4,0,0,0,413.6,160L402.4,160A2.4,2.4,0,0,0,400,162.4L400,173.6A2.4,2.4,0,0,1,397.6,176L386.4,176A2.4,2.4,0,0,1,384,173.6L384,160L384,146.4A2.4,2.4,0,0,1,386.4,144L400,144L416,144L429.6,144A2.4,2.4,0,0,0,432,141.6L432,130.4A2.4,2.4,0,0,0,429.6,128L416,128L402.4,128A2.4,2.4,0,0,1,400,125.6L400,114.4A2.4,2.4,0,0,1,402.4,112L416,112L429.6,112A2.4,2.4,0,0,0,432,109.6L432,98.4A2.4,2.4,0,0,0,429.6,96L416,96L400,96L384,96L370.4,96A2.4,2.4,0,0,1,368,93.6L368,80L368,66.4A2.4,2.4,0,0,1,370.4,64M370.4,256L381.6,256A2.4,2.4,0,0,1,384,258.4L384,269.6A2.4,2.4,0,0,1,381.6,272L370.4,272A2.4,2.4,0,0,1,368,269.6L368,258.4A2.4,2.4,0,0,1,370.4,256M386.4,320L397.6,320A2.4,2.4,0,0,1,400,322.4L400,333.6A2.4,2.4,0,0,1,397.6,336L386.4,336A2.4,2.4,0,0,1,384,333.6L384,322.4A2.4,2.4,0,0,1,386.4,320M386.4,400L397.6,400A2.4,2.4,0,0,1,400,402.4L400,413.6A2.4,2.4,0,0,1,397.6,416L386.4,416A2.4,2.4,0,0,1,384,413.6L384,402.4A2.4,2.4,0,0,1,386.4,400M402.4,352L416,352L432,352L445.6,352A2.4,2.4,0,0,1,448,354.4L448,365.6A2.4,2.4,0,0,1,445.6,368L434.4,368A2.4,2.4,0,0,0,432,370.4L432,381.6A2.4,2.4,0,0,1,429.6,384L418.4,384A2.4,2.4,0,0,1,416,381.6L416,370.4A2.4,2.4,0,0,0,413.6,368L402.4,368A2.4,2.4,0,0,1,400,365.6L400,354.4A2.4,2.4,0,0,1,402.4,352M402.4,432L413.6,432A2.4,2.4,0,0,1,416,434.4L416,445.6A2.4,2.4,0,0,1,413.6,448L402.4,448A2.4,2.4,0,0,1,400,445.6L400,434.4A2.4,2.4,0,0,1,402.4,432M418.4,320L432,320L448,320L464,320L477.6,320A2.4,2.4,0,0,1,480,322.4L480,333.6A2.4,2.4,0,0,1,477.6,336L466.4,336A2.4,2.4,0,0,0,464,338.4L464,349.6A2.4,2.4,0,0,1,461.6,352L450.4,352A2.4,2.4,0,0,1,448,349.6L448,338.4A2.4,2.4,0,0,0,445.6,336L432,336L418.4,336A2.4,2.4,0,0,1,416,333.6L416,322.4A2.4,2.4,0,0,1,418.4,320M418.4,400L429.6,400A2.4,2.4,0,0,0,432,397.6L432,386.4A2.4,2.4,0,0,1,434.4,384L445.6,384A2.4,2.4,0,0,1,448,386.4L448,400L448,413.6A2.4,2.4,0,0,1,445.6,416L432,416L418.4,416A2.4,2.4,0,0,1,416,413.6L416,402.4A2.4,2.4,0,0,1,418.4,400M418.4,464L429.6,464A2.4,2.4,0,0,1,432,466.4L432,477.6A2.4,2.4,0,0,1,429.6,480L418.4,480A2.4,2.4,0,0,1,416,477.6L416,466.4A2.4,2.4,0,0,1,418.4,464M448,130.4L448,141.6A2.4,2.4,0,0,0,450.4,144L461.6,144A2.4,2.4,0,0,0,464,141.6L464,130.4A2.4,2.4,0,0,0,461.6,128L450.4,128A2.4,2.4,0,0,0,448,130.4M434.4,432L445.6,432A2.4,2.4,0,0,1,448,434.4L448,448L448,461.6A2.4,2.4,0,0,1,445.6,464L434.4,464A2.4,2.4,0,0,1,432,461.6L432,448L432,434.4A2.4,2.4,0,0,1,434.4,432M434.4,608L448,608L464,608L480,608L493.6,608A2.4,2.4,0,0,1,496,610.4L496,624L496,640L496,653.6A2.4,2.4,0,0,1,493.6,656L482.4,656A2.4,2.4,0,0,1,480,653.6L480,640L480,626.4A2.4,2.4,0,0,0,477.6,624L464,624L450.4,624A2.4,2.4,0,0,0,448,626.4L448,637.6A2.4,2.4,0,0,1,445.6,640L434.4,640A2.4,2.4,0,0,1,432,637.6L432,624L432,610.4A2.4,2.4,0,0,1,434.4,608M450.4,416L461.6,416A2.4,2.4,0,0,1,464,418.4L464,429.6A2.4,2.4,0,0,1,461.6,432L450.4,432A2.4,2.4,0,0,1,448,429.6L448,418.4A2.4,2.4,0,0,1,450.4,416M450.4,464L461.6,464A2.4,2.4,0,0,1,464,466.4L464,477.6A2.4,2.4,0,0,1,461.6,480L450.4,480A2.4,2.4,0,0,1,448,477.6L448,466.4A2.4,2.4,0,0,1,450.4,464M450.4,496L461.6,496A2.4,2.4,0,0,1,464,498.4L464,509.6A2.4,2.4,0,0,0,466.4,512L477.6,512A2.4,2.4,0,0,0,480,509.6L480,498.4A2.4,2.4,0,0,1,482.4,496L496,496L509.6,496A2.4,2.4,0,0,1,512,498.4L512,509.6A2.4,2.4,0,0,1,509.6,512L498.4,512A2.4,2.4,0,0,0,496,514.4L496,525.6A2.4,2.4,0,0,1,493.6,528L482.4,528A2.4,2.4,0,0,0,480,530.4L480,541.6A2.4,2.4,0,0,1,477.6,544L466.4,544A2.4,2.4,0,0,1,464,541.6L464,530.4A2.4,2.4,0,0,0,461.6,528L450.4,528A2.4,2.4,0,0,1,448,525.6L448,512L448,498.4A2.4,2.4,0,0,1,450.4,496M450.4,640L461.6,640A2.4,2.4,0,0,1,464,642.4L464,653.6A2.4,2.4,0,0,1,461.6,656L450.4,656A2.4,2.4,0,0,1,448,653.6L448,642.4A2.4,2.4,0,0,1,450.4,640M466.4,288L477.6,288A2.4,2.4,0,0,1,480,290.4L480,301.6A2.4,2.4,0,0,1,477.6,304L466.4,304A2.4,2.4,0,0,1,464,301.6L464,290.4A2.4,2.4,0,0,1,466.4,288M466.4,352L477.6,352A2.4,2.4,0,0,1,480,354.4L480,365.6A2.4,2.4,0,0,1,477.6,368L466.4,368A2.4,2.4,0,0,1,464,365.6L464,354.4A2.4,2.4,0,0,1,466.4,352M466.4,384L477.6,384A2.4,2.4,0,0,0,480,381.6L480,370.4A2.4,2.4,0,0,1,482.4,368L493.6,368A2.4,2.4,0,0,1,496,370.4L496,384L496,397.6A2.4,2.4,0,0,1,493.6,400L480,400L466.4,400A2.4,2.4,0,0,1,464,397.6L464,386.4A2.4,2.4,0,0,1,466.4,384M466.4,448L477.6,448A2.4,2.4,0,0,0,480,445.6L480,434.4A2.4,2.4,0,0,1,482.4,432L493.6,432A2.4,2.4,0,0,0,496,429.6L496,416L496,402.4A2.4,2.4,0,0,1,498.4,400L512,400L525.6,400A2.4,2.4,0,0,1,528,402.4L528,413.6A2.4,2.4,0,0,1,525.6,416L514.4,416A2.4,2.4,0,0,0,512,418.4L512,432L512,445.6A2.4,2.4,0,0,1,509.6,448L498.4,448A2.4,2.4,0,0,0,496,450.4L496,464L496,477.6A2.4,2.4,0,0,1,493.6,480L482.4,480A2.4,2.4,0,0,1,480,477.6L480,466.4A2.4,2.4,0,0,0,477.6,464L466.4,464A2.4,2.4,0,0,1,464,461.6L464,450.4A2.4,2.4,0,0,1,466.4,448M466.4,480L477.6,480A2.4,2.4,0,0,1,480,482.4L480,493.6A2.4,2.4,0,0,1,477.6,496L466.4,496A2.4,2.4,0,0,1,464,493.6L464,482.4A2.4,2.4,0,0,1,466.4,480M482.4,96L493.6,96A2.4,2.4,0,0,1,496,98.4L496,109.6A2.4,2.4,0,0,1,493.6,112L482.4,112A2.4,2.4,0,0,1,480,109.6L480,98.4A2.4,2.4,0,0,1,482.4,96M498.4,112L509.6,112A2.4,2.4,0,0,0,512,109.6L512,96L512,82.4A2.4,2.4,0,0,1,514.4,80L525.6,80A2.4,2.4,0,0,1,528,82.4L528,96L528,112L528,125.6A2.4,2.4,0,0,1,525.6,128L512,128L498.4,128A2.4,2.4,0,0,1,496,125.6L496,114.4A2.4,2.4,0,0,1,498.4,112M498.4,256L512,256L525.6,256A2.4,2.4,0,0,1,528,258.4L528,269.6A2.4,2.4,0,0,0,530.4,272L541.6,272A2.4,2.4,0,0,1,544,274.4L544,285.6A2.4,2.4,0,0,1,541.6,288L528,288L514.4,288A2.4,2.4,0,0,0,512,290.4L512,304L512,320L512,336L512,352L512,365.6A2.4,2.4,0,0,1,509.6,368L498.4,368A2.4,2.4,0,0,1,496,365.6L496,352L496,336L496,320L496,304L496,288L496,272L496,258.4A2.4,2.4,0,0,1,498.4,256M514.4,368L525.6,368A2.4,2.4,0,0,1,528,370.4L528,381.6A2.4,2.4,0,0,1,525.6,384L514.4,384A2.4,2.4,0,0,1,512,381.6L512,370.4A2.4,2.4,0,0,1,514.4,368M514.4,448L525.6,448A2.4,2.4,0,0,0,528,445.6L528,434.4A2.4,2.4,0,0,1,530.4,432L541.6,432A2.4,2.4,0,0,0,544,429.6L544,418.4A2.4,2.4,0,0,1,546.4,416L557.6,416A2.4,2.4,0,0,1,560,418.4L560,429.6A2.4,2.4,0,0,0,562.4,432L573.6,432A2.4,2.4,0,0,1,576,434.4L576,445.6A2.4,2.4,0,0,0,578.4,448L589.6,448A2.4,2.4,0,0,1,592,450.4L592,461.6A2.4,2.4,0,0,1,589.6,464L576,464L562.4,464A2.4,2.4,0,0,0,560,466.4L560,480L560,493.6A2.4,2.4,0,0,1,557.6,496L546.4,496A2.4,2.4,0,0,1,544,493.6L544,482.4A2.4,2.4,0,0,0,541.6,480L528,480L514.4,480A2.4,2.4,0,0,1,512,477.6L512,464L512,450.4A2.4,2.4,0,0,1,514.4,448M528,530.4L528,544L528,560L528,573.6A2.4,2.4,0,0,0,530.4,576L544,576L560,576L573.6,576A2.4,2.4,0,0,0,576,573.6L576,560L576,544L576,530.4A2.4,2.4,0,0,0,573.6,528L560,528L544,528L530.4,528A2.4,2.4,0,0,0,528,530.4M514.4,624L525.6,624A2.4,2.4,0,0,0,528,621.6L528,610.4A2.4,2.4,0,0,1,530.4,608L541.6,608A2.4,2.4,0,0,1,544,610.4L544,624L544,637.6A2.4,2.4,0,0,1,541.6,640L530.4,640A2.4,2.4,0,0,0,528,642.4L528,653.6A2.4,2.4,0,0,1,525.6,656L514.4,656A2.4,2.4,0,0,1,512,653.6L512,640L512,626.4A2.4,2.4,0,0,1,514.4,624M530.4,304L541.6,304A2.4,2.4,0,0,1,544,306.4L544,317.6A2.4,2.4,0,0,0,546.4,320L557.6,320A2.4,2.4,0,0,1,560,322.4L560,333.6A2.4,2.4,0,0,1,557.6,336L544,336L530.4,336A2.4,2.4,0,0,1,528,333.6L528,320L528,306.4A2.4,2.4,0,0,1,530.4,304M530.4,352L544,352L557.6,352A2.4,2.4,0,0,0,560,349.6L560,338.4A2.4,2.4,0,0,1,562.4,336L573.6,336A2.4,2.4,0,0,1,576,338.4L576,352L576,365.6A2.4,2.4,0,0,0,578.4,368L589.6,368A2.4,2.4,0,0,0,592,365.6L592,352L592,338.4A2.4,2.4,0,0,1,594.4,336L605.6,336A2.4,2.4,0,0,0,608,333.6L608,322.4A2.4,2.4,0,0,0,605.6,320L594.4,320A2.4,2.4,0,0,0,592,322.4L592,333.6A2.4,2.4,0,0,1,589.6,336L578.4,336A2.4,2.4,0,0,1,576,333.6L576,320L576,306.4A2.4,2.4,0,0,1,578.4,304L589.6,304A2.4,2.4,0,0,0,592,301.6L592,290.4A2.4,2.4,0,0,1,594.4,288L605.6,288A2.4,2.4,0,0,1,608,290.4L608,301.6A2.4,2.4,0,0,0,610.4,304L621.6,304A2.4,2.4,0,0,1,624,306.4L624,317.6A2.4,2.4,0,0,0,626.4,320L637.6,320A2.4,2.4,0,0,0,640,317.6L640,306.4A2.4,2.4,0,0,0,637.6,304L626.4,304A2.4,2.4,0,0,1,624,301.6L624,290.4A2.4,2.4,0,0,1,626.4,288L640,288L653.6,288A2.4,2.4,0,0,1,656,290.4L656,304L656,320L656,333.6A2.4,2.4,0,0,1,653.6,336L640,336L626.4,336A2.4,2.4,0,0,0,624,338.4L624,352L624,365.6A2.4,2.4,0,0,1,621.6,368L610.4,368A2.4,2.4,0,0,0,608,370.4L608,381.6A2.4,2.4,0,0,1,605.6,384L594.4,384A2.4,2.4,0,0,0,592,386.4L592,400L592,413.6A2.4,2.4,0,0,1,589.6,416L576,416L562.4,416A2.4,2.4,0,0,1,560,413.6L560,402.4A2.4,2.4,0,0,0,557.6,400L544,400L530.4,400A2.4,2.4,0,0,1,528,397.6L528,386.4A2.4,2.4,0,0,1,530.4,384L544,384L557.6,384A2.4,2.4,0,0,0,560,381.6L560,370.4A2.4,2.4,0,0,0,557.6,368L544,368L530.4,368A2.4,2.4,0,0,1,528,365.6L528,354.4A2.4,2.4,0,0,1,530.4,352M546.4,192L557.6,192A2.4,2.4,0,0,1,560,194.4L560,205.6A2.4,2.4,0,0,0,562.4,208L573.6,208A2.4,2.4,0,0,1,576,210.4L576,221.6A2.4,2.4,0,0,1,573.6,224L562.4,224A2.4,2.4,0,0,0,560,226.4L560,237.6A2.4,2.4,0,0,0,562.4,240L573.6,240A2.4,2.4,0,0,0,576,237.6L576,226.4A2.4,2.4,0,0,1,578.4,224L589.6,224A2.4,2.4,0,0,0,592,221.6L592,210.4A2.4,2.4,0,0,1,594.4,208L605.6,208A2.4,2.4,0,0,0,608,205.6L608,194.4A2.4,2.4,0,0,1,610.4,192L621.6,192A2.4,2.4,0,0,1,624,194.4L624,208L624,221.6A2.4,2.4,0,0,1,621.6,224L610.4,224A2.4,2.4,0,0,0,608,226.4L608,240L608,256L608,269.6A2.4,2.4,0,0,1,605.6,272L594.4,272A2.4,2.4,0,0,1,592,269.6L592,258.4A2.4,2.4,0,0,0,589.6,256L576,256L562.4,256A2.4,2.4,0,0,0,560,258.4L560,269.6A2.4,2.4,0,0,1,557.6,272L546.4,272A2.4,2.4,0,0,1,544,269.6L544,256L544,240L544,224L544,208L544,194.4A2.4,2.4,0,0,1,546.4,192M546.4,288L557.6,288A2.4,2.4,0,0,1,560,290.4L560,301.6A2.4,2.4,0,0,1,557.6,304L546.4,304A2.4,2.4,0,0,1,544,301.6L544,290.4A2.4,2.4,0,0,1,546.4,288M546.4,544L557.6,544A2.4,2.4,0,0,1,560,546.4L560,557.6A2.4,2.4,0,0,1,557.6,560L546.4,560A2.4,2.4,0,0,1,544,557.6L544,546.4A2.4,2.4,0,0,1,546.4,544M562.4,272L573.6,272A2.4,2.4,0,0,1,576,274.4L576,285.6A2.4,2.4,0,0,1,573.6,288L562.4,288A2.4,2.4,0,0,1,560,285.6L560,274.4A2.4,2.4,0,0,1,562.4,272M578.4,192L589.6,192A2.4,2.4,0,0,1,592,194.4L592,205.6A2.4,2.4,0,0,1,589.6,208L578.4,208A2.4,2.4,0,0,1,576,205.6L576,194.4A2.4,2.4,0,0,1,578.4,192M594.4,432L605.6,432A2.4,2.4,0,0,1,608,434.4L608,445.6A2.4,2.4,0,0,1,605.6,448L594.4,448A2.4,2.4,0,0,1,592,445.6L592,434.4A2.4,2.4,0,0,1,594.4,432M610.4,272L621.6,272A2.4,2.4,0,0,1,624,274.4L624,285.6A2.4,2.4,0,0,1,621.6,288L610.4,288A2.4,2.4,0,0,1,608,285.6L608,274.4A2.4,2.4,0,0,1,610.4,272M610.4,384L624,384L637.6,384A2.4,2.4,0,0,0,640,381.6L640,368L640,354.4A2.4,2.4,0,0,1,642.4,352L653.6,352A2.4,2.4,0,0,1,656,354.4L656,368L656,384L656,397.6A2.4,2.4,0,0,1,653.6,400L642.4,400A2.4,2.4,0,0,0,640,402.4L640,413.6A2.4,2.4,0,0,0,642.4,416L653.6,416A2.4,2.4,0,0,1,656,418.4L656,432L656,445.6A2.4,2.4,0,0,1,653.6,448L642.4,448A2.4,2.4,0,0,1,640,445.6L640,434.4A2.4,2.4,0,0,0,637.6,432L624,432L610.4,432A2.4,2.4,0,0,1,608,429.6L608,416L608,400L608,386.4A2.4,2.4,0,0,1,610.4,384M610.4,576L621.6,576A2.4,2.4,0,0,1,624,578.4L624,589.6A2.4,2.4,0,0,1,621.6,592L610.4,592A2.4,2.4,0,0,1,608,589.6L608,578.4A2.4,2.4,0,0,1,610.4,576M626.4,224L640,224L653.6,224A2.4,2.4,0,0,1,656,226.4L656,237.6A2.4,2.4,0,0,1,653.6,240L640,240L626.4,240A2.4,2.4,0,0,1,624,237.6L624,226.4A2.4,2.4,0,0,1,626.4,224M626.4,256L640,256L653.6,256A2.4,2.4,0,0,1,656,258.4L656,269.6A2.4,2.4,0,0,1,653.6,272L640,272L626.4,272A2.4,2.4,0,0,1,624,269.6L624,258.4A2.4,2.4,0,0,1,626.4,256M626.4,528L637.6,528A2.4,2.4,0,0,1,640,530.4L640,541.6A2.4,2.4,0,0,1,637.6,544L626.4,544A2.4,2.4,0,0,1,624,541.6L624,530.4A2.4,2.4,0,0,1,626.4,528M626.4,560L637.6,560A2.4,2.4,0,0,0,640,557.6L640,546.4A2.4,2.4,0,0,1,642.4,544L653.6,544A2.4,2.4,0,0,1,656,546.4L656,560L656,573.6A2.4,2.4,0,0,1,653.6,576L640,576L626.4,576A2.4,2.4,0,0,1,624,573.6L624,562.4A2.4,2.4,0,0,1,626.4,560M642.4,192L653.6,192A2.4,2.4,0,0,1,656,194.4L656,205.6A2.4,2.4,0,0,1,653.6,208L642.4,208A2.4,2.4,0,0,1,640,205.6L640,194.4A2.4,2.4,0,0,1,642.4,192Z" />
<path d="M4.7253,9.0689C6.179,9.0436 6.4149,7.6154 6.4149,6.769C6.4149,5.5163 5.775,5.0788 5,5C4.0425,5.4242 3.3403,6.146 3.2555,7.2606C3.2416,7.4443 3.237,7.6894 3.2516,7.9757C3.2906,8.7383 3.8493,9.0843 4.7253,9.0689 M 12.2447 10.8068 C 11.2047 10.8068 10.1118 10.1673 10.06 8.9707 C 8.8774 10.2223 7.0538 10.8186 4.7253 10.8186 C 2.3769 10.8186 1.396 9.2175 1.396 7.9703 C 1.4554 3.8126 1.3605 2.255 1.341 1.9353 C 1.3393 1.907 1.3381 1.8884 1.3377 1.8785 L 1.3373 1.8677 C 1.3313 1.7096 1.3224 1.4733 1.172 1.4572 C 1.0786 1.4472 1.0183 1.4757 0.911 1.6094 C 0.75 1.8233 0.425 1.908 0.2273 1.7937 C -0.0116 1.6555 -0.0562 1.3505 0.0647 1.0697 C 0.4002 0.3212 0.9379 -0.01 1.6625 0.0003 C 2.9146 0.0182 3.2738 0.8359 3.2738 1.8575 C 3.2738 1.8575 3.246 3.3292 3.246 4.1579 C 3.689 3.7969 4.3397 3.4098 5.4266 3.4098 C 7.6899 3.4098 9.1267 6.2118 7.6503 8.8925 C 9.5428 8.0197 9.9378 6.5164 10.0112 5.0238 L 10.0043 4.5203 C 10.0043 3.9552 10.3688 3.4767 10.9361 3.4767 C 11.5034 3.4767 11.8802 3.9877 11.86 4.5271 C 11.7919 6.3438 11.7644 7.5395 11.7644 8.1722 C 11.7644 8.5384 11.9642 9.0996 12.5555 9.0996 C 13.7134 9.0996 14.094 8.1922 14.1838 6.0595 C 14.1885 5.2642 14.1927 4.5997 14.1927 4.5997 C 13.6679 4.5997 13.4094 4.324 13.4094 3.9795 C 13.4094 3.635 13.683 3.3163 14.1321 3.3163 C 14.1321 3.3163 14.133 2.1182 14.133 1.622 C 14.133 1.0569 14.5715 0.5883 15.1388 0.5883 C 15.7062 0.5883 16.1567 1.0569 16.1567 1.622 C 16.1567 1.8095 16.1495 2.028 16.1416 2.2695 C 16.1315 2.5784 16.1201 2.9246 16.121 3.2909 L 16.2032 3.2905 H 16.2032 C 16.357 3.29 16.7051 3.2888 17.1681 3.2834 C 17.7198 3.2769 17.9445 3.5851 17.9445 3.9709 C 17.9445 4.3567 17.6475 4.626 17.2602 4.6276 C 16.9012 4.6291 16.1083 4.6247 16.1083 4.6247 C 16.0723 5.7674 16.0382 7.1451 16.0382 8.2475 C 16.0382 8.6451 16.3126 9.0995 16.9767 9.0995 C 18.3163 9.0995 18.8167 7.9092 18.9173 5.6498 C 18.9095 4.0766 18.8907 3.1653 18.8765 2.4785 V 2.4785 C 18.8666 1.9969 18.859 1.6258 18.859 1.2143 C 18.859 0.6493 19.3295 0.1442 19.8967 0.1442 C 20.4641 0.1442 20.8826 0.5977 20.8826 1.1627 C 20.8826 1.598 20.8651 2.1069 20.8413 2.8009 V 2.8009 V 2.801 C 20.801 3.9747 20.7425 5.6778 20.7195 8.4504 C 20.7165 8.8195 20.8967 9.0795 21.3748 9.0795 C 22.6524 9.0795 23.0066 7.6955 23.119 5.7625 C 23.1197 5.6695 23.1205 5.5785 23.1214 5.4891 L 23.1214 5.4887 C 23.1231 5.3054 23.1247 5.1289 23.1247 4.9561 C 23.1247 4.391 23.5011 3.9337 24.0686 3.9337 C 24.6359 3.9337 24.9694 4.4022 24.9694 4.9673 C 24.9694 5.3698 24.9562 5.7464 24.9427 6.1348 C 24.9307 6.4777 24.9184 6.8299 24.9146 7.2176 C 24.9047 8.2151 25.2455 9.0938 26.0756 9.0914 C 26.8726 9.0891 27.7479 8.7536 27.7691 7.045 C 27.7751 6.5701 27.7683 6.2053 27.7615 5.8371 V 5.837 V 5.8369 V 5.8368 C 27.7564 5.5642 27.7513 5.2897 27.7513 4.9673 C 27.7513 4.4022 28.1451 3.9337 28.7125 3.9337 C 29.2795 3.9337 29.6737 4.4022 29.6737 4.9673 C 29.6737 5.3051 29.6614 5.6415 29.6477 6.0145 V 6.0145 V 6.0146 V 6.0146 C 29.6307 6.4783 29.6117 6.9984 29.6117 7.6477 C 29.6117 7.6477 29.5769 10.0141 29.66 10.5378 C 29.9203 10.4512 30.2958 10.1968 30.6935 9.5802 C 30.9337 9.208 31.3928 9.1282 31.6758 9.293 C 32.0653 9.52 32.0514 9.9635 31.9058 10.2875 C 31.5298 11.1239 31.0409 11.6358 29.8047 12.0595 C 29.8086 13.4782 29.7098 15.5713 27.0868 15.9496 C 24.8405 16.2735 23.8244 14.9708 23.8211 13.8623 C 23.8157 12.112 25.5649 11.6022 28.0897 10.9665 L 28.0087 10.099 C 28.0087 10.099 27.4464 10.8364 26.0215 10.8008 C 24.9223 10.7733 24.1663 10.2543 23.7077 9.5213 C 23.1787 10.3901 22.3495 10.8105 21.1004 10.8105 C 20.2775 10.8105 19.4934 10.3758 19.1051 9.7457 C 18.5325 10.4308 17.7339 10.8015 16.6607 10.8015 C 15.7256 10.8015 15.0346 10.4786 14.6209 9.9746 C 14.087 10.5712 13.318 10.8068 12.2447 10.8068 Z M 28.2548 12.363 C 26.9786 12.6385 25.3798 13.0407 25.3983 13.8266 C 25.4158 14.5636 26.1767 14.6977 26.8111 14.5666 C 28.1286 14.2943 28.2816 13.5015 28.2548 12.363 Z M 11.9704 1.6249 C 11.9704 1.0544 11.5073 0.5932 10.9347 0.5932 C 10.3619 0.5932 9.8989 1.0544 9.8989 1.6249 C 9.8989 2.1953 10.3619 2.6566 10.9347 2.6566 C 11.5073 2.6566 11.9704 2.1953 11.9704 1.6249 Z" fill='#000000' transform='translate(584.000000, 620.000000) scale(2.250000, 2.250000)' />
</g>
<g id='corners-outer-1' transform="translate(64, 64) scale(5.60, 5.60) " style='fill:#000000' >
<path d="M 17.14 0 H 2 C 0.9 0 0 0.9 0 2 V 18 C 0 19.1 0.9 20 2 20 H 18 C 19.1 20 20 19.1 20 18 V 2 C 20 0.9 19.1 0 18 0 H 17.14 Z M 17.14 5.71 V 15.14 C 17.14 16.25 16.25 17.14 15.14 17.14 H 4.86 C 3.75 17.14 2.86 16.25 2.86 15.14 V 4.86 C 2.86 3.75 3.75 2.86 4.86 2.86 H 15.14 C 16.25 2.86 17.14 3.75 17.14 4.86 V 5.71 Z" />
</g>
<g id='corners-inner-1' transform="translate(96, 96) scale(5.60, 5.60) " style='fill:#000000' >
<path d="M 5.64 0 H 1 C 0.45 0 0 0.45 0 1 V 7.46 C 0 8.01 0.45 8.46 1 8.46 H 7.46 C 8.01 8.46 8.46 8.01 8.46 7.46 V 1 C 8.46 0.45 8.01 0 7.46 0 H 5.64 Z" />
</g>
<g id='corners-outer-2' transform="translate(544, 64) scale(5.60, 5.60) " style='fill:#000000' >
<path d="M 17.14 0 H 2 C 0.9 0 0 0.9 0 2 V 18 C 0 19.1 0.9 20 2 20 H 18 C 19.1 20 20 19.1 20 18 V 2 C 20 0.9 19.1 0 18 0 H 17.14 Z M 17.14 5.71 V 15.14 C 17.14 16.25 16.25 17.14 15.14 17.14 H 4.86 C 3.75 17.14 2.86 16.25 2.86 15.14 V 4.86 C 2.86 3.75 3.75 2.86 4.86 2.86 H 15.14 C 16.25 2.86 17.14 3.75 17.14 4.86 V 5.71 Z" />
</g>
<g id='corners-inner-2' transform="translate(576, 96) scale(5.60, 5.60) " style='fill:#000000' >
<path d="M 5.64 0 H 1 C 0.45 0 0 0.45 0 1 V 7.46 C 0 8.01 0.45 8.46 1 8.46 H 7.46 C 8.01 8.46 8.46 8.01 8.46 7.46 V 1 C 8.46 0.45 8.01 0 7.46 0 H 5.64 Z" />
</g>
<g id='corners-outer-3' transform="translate(64, 544) scale(5.60, 5.60) " style='fill:#000000' >
<path d="M 17.14 0 H 2 C 0.9 0 0 0.9 0 2 V 18 C 0 19.1 0.9 20 2 20 H 18 C 19.1 20 20 19.1 20 18 V 2 C 20 0.9 19.1 0 18 0 H 17.14 Z M 17.14 5.71 V 15.14 C 17.14 16.25 16.25 17.14 15.14 17.14 H 4.86 C 3.75 17.14 2.86 16.25 2.86 15.14 V 4.86 C 2.86 3.75 3.75 2.86 4.86 2.86 H 15.14 C 16.25 2.86 17.14 3.75 17.14 4.86 V 5.71 Z" />
</g>
<g id='corners-inner-3' transform="translate(96, 576) scale(5.60, 5.60) " style='fill:#000000' >
<path d="M 5.64 0 H 1 C 0.45 0 0 0.45 0 1 V 7.46 C 0 8.01 0.45 8.46 1 8.46 H 7.46 C 8.01 8.46 8.46 8.01 8.46 7.46 V 1 C 8.46 0.45 8.01 0 7.46 0 H 5.64 Z" />
</g>
</svg>
